<svg xmlns="http://www.w3.org/2000/svg" width="1600" height="900" viewBox="0 0 1600 900">
  <defs>
    <linearGradient id="sky" x1="0" y1="0" x2="0" y2="1">
      <stop offset="0" stop-color="#0b1026" />
      <stop offset="0.55" stop-color="#1b2a66" />
      <stop offset="1" stop-color="#0a0d18" />
    </linearGradient>
    <linearGradient id="fog" x1="0" y1="0" x2="1" y2="0">
      <stop offset="0" stop-color="#ccff00" stop-opacity="0.1" />
      <stop offset="0.5" stop-color="#ffffff" stop-opacity="0.08" />
      <stop offset="1" stop-color="#8be9ff" stop-opacity="0.1" />
    </linearGradient>
  </defs>
  <rect width="1600" height="900" fill="url(#sky)" />
  <circle cx="1260" cy="170" r="64" fill="#ccff00" opacity="0.18" />
  <circle cx="1260" cy="170" r="120" fill="#ccff00" opacity="0.08" />
  <path
    d="M0 700 L280 420 L470 610 L690 320 L910 620 L1160 380 L1400 660 L1600 520 L1600 900 L0 900 Z"
    fill="#0f1a3a"
  />
  <path
    d="M0 740 L260 520 L460 680 L720 420 L920 680 L1220 500 L1450 740 L1600 640 L1600 900 L0 900 Z"
    fill="#0a1230"
    opacity="0.95"
  />
  <path d="M0 520 H1600 V650 H0 Z" fill="url(#fog)" opacity="0.9" />
  <g opacity="0.22">
    <path d="M120 260 L210 210 L260 260 Z" fill="#ffffff" />
    <path d="M420 210 L480 170 L540 210 Z" fill="#ffffff" />
    <path d="M780 250 L860 200 L910 250 Z" fill="#ffffff" />
    <path d="M1120 230 L1190 190 L1250 230 Z" fill="#ffffff" />
  </g>
</svg>

