<svg xmlns="http://www.w3.org/2000/svg" width="1600" height="900" viewBox="0 0 1600 900">
  <defs>
    <linearGradient id="sky" x1="0" y1="0" x2="0" y2="1">
      <stop offset="0" stop-color="#0a0820" />
      <stop offset="0.55" stop-color="#140b3a" />
      <stop offset="1" stop-color="#05040c" />
    </linearGradient>
    <linearGradient id="neon" x1="0" y1="0" x2="1" y2="1">
      <stop offset="0" stop-color="#ccff00" stop-opacity="0.35" />
      <stop offset="0.45" stop-color="#00ffd5" stop-opacity="0.25" />
      <stop offset="1" stop-color="#ff4dd8" stop-opacity="0.22" />
    </linearGradient>
  </defs>
  <rect width="1600" height="900" fill="url(#sky)" />
  <rect width="1600" height="900" fill="url(#neon)" />
  <g opacity="0.95">
    <rect x="60" y="360" width="160" height="540" fill="#070613" />
    <rect x="250" y="280" width="210" height="620" fill="#070613" />
    <rect x="500" y="320" width="170" height="580" fill="#070613" />
    <rect x="700" y="220" width="240" height="680" fill="#070613" />
    <rect x="980" y="300" width="180" height="600" fill="#070613" />
    <rect x="1190" y="260" width="310" height="640" fill="#070613" />
  </g>
  <g opacity="0.6">
    <rect x="85" y="410" width="14" height="22" fill="#ccff00" />
    <rect x="112" y="450" width="14" height="22" fill="#00ffd5" />
    <rect x="300" y="350" width="14" height="22" fill="#ff4dd8" />
    <rect x="335" y="390" width="14" height="22" fill="#ccff00" />
    <rect x="760" y="280" width="18" height="28" fill="#00ffd5" />
    <rect x="820" y="330" width="18" height="28" fill="#ccff00" />
    <rect x="1230" y="310" width="18" height="28" fill="#ff4dd8" />
    <rect x="1280" y="360" width="18" height="28" fill="#00ffd5" />
    <rect x="1350" y="420" width="18" height="28" fill="#ccff00" />
  </g>
  <path
    d="M0 760 C260 700 420 820 660 760 C900 700 1090 860 1300 760 C1450 690 1530 740 1600 720 V900 H0 Z"
    fill="#02020a"
    opacity="0.95"
  />
</svg>

