<svg xmlns="http://www.w3.org/2000/svg" width="1600" height="900" viewBox="0 0 1600 900">
  <defs>
    <linearGradient id="sky" x1="0" y1="0" x2="0" y2="1">
      <stop offset="0" stop-color="#57c6ff" />
      <stop offset="0.55" stop-color="#b6f0ff" />
      <stop offset="1" stop-color="#0b1a2b" />
    </linearGradient>
    <linearGradient id="sea" x1="0" y1="0" x2="0" y2="1">
      <stop offset="0" stop-color="#0bd4ff" stop-opacity="0.85" />
      <stop offset="0.6" stop-color="#0b4b9b" stop-opacity="0.95" />
      <stop offset="1" stop-color="#061026" />
    </linearGradient>
    <radialGradient id="sun" cx="0.72" cy="0.22" r="0.22">
      <stop offset="0" stop-color="#ffffff" stop-opacity="0.95" />
      <stop offset="0.45" stop-color="#fff2b2" stop-opacity="0.7" />
      <stop offset="1" stop-color="#ffd26e" stop-opacity="0" />
    </radialGradient>
    <filter id="blur" x="-20%" y="-20%" width="140%" height="140%">
      <feGaussianBlur stdDeviation="8" />
    </filter>
  </defs>
  <rect width="1600" height="900" fill="url(#sky)" />
  <ellipse cx="1180" cy="190" rx="210" ry="210" fill="url(#sun)" />
  <rect y="430" width="1600" height="470" fill="url(#sea)" />
  <path
    d="M0 520 C180 480, 360 560, 540 520 C720 480, 900 560, 1080 520 C1260 480, 1440 560, 1600 520 L1600 900 L0 900 Z"
    fill="#0a2f6b"
    opacity="0.35"
  />
  <path
    d="M0 610 C220 565, 420 670, 640 610 C860 550, 1040 690, 1260 610 C1420 555, 1520 605, 1600 580 L1600 900 L0 900 Z"
    fill="#0a1e47"
    opacity="0.45"
  />
  <g opacity="0.22" filter="url(#blur)">
    <path d="M120 470 C260 440, 370 520, 510 480" stroke="#ffffff" stroke-width="10" fill="none" />
    <path d="M740 500 C880 470, 1010 550, 1180 510" stroke="#ffffff" stroke-width="10" fill="none" />
    <path d="M1040 590 C1170 560, 1310 650, 1460 600" stroke="#ffffff" stroke-width="10" fill="none" />
  </g>
</svg>

